<mxfile host="app.diagrams.net" modified="2023-08-11T03:29:21.487Z" agent="Mozilla/5.0 (Windows NT 10.0; Win64; x64) AppleWebKit/537.36 (KHTML, like Gecko) Chrome/115.0.0.0 Safari/537.36" version="21.6.8" etag="O7IhpmnFhCw2AbRtsxPa" type="github">
  <diagram name="페이지-1" id="bNBcjgo6xiY2U4squcNP">
    <mxGraphModel>
      <root>
        <mxCell id="0" />
        <mxCell id="1" parent="0" />
      </root>
    </mxGraphModel>
  </diagram>
</mxfile>
